<svg xmlns:xlink="http://www.w3.org/1999/xlink" xmlns="http://www.w3.org/2000/svg" version="1.1" viewBox="0 0 10 8" width="10"  height="8" >
  <path d="M5.073,2.96c.267-.448.954-1.123,1.386-1.385.055-.033.055-.114,0-.147-.432-.263-1.119-.938-1.386-1.385-.033-.056-.114-.056-.148,0-.265.446-.952,1.121-1.383,1.384-.055.033-.055.114,0,.147.43.263,1.117.938,1.383,1.385.033.056.114.056.148,0h0Z" fill="#FFFFFF"></path>
  <path d="M5.073,7.96c.267-.448.954-1.123,1.386-1.385.055-.033.055-.114,0-.147-.432-.263-1.119-.938-1.386-1.385-.033-.056-.114-.056-.148,0-.265.446-.952,1.121-1.383,1.384-.055.033-.055.114,0,.147.43.263,1.117.938,1.383,1.385.033.056.114.056.148,0h0Z" fill="#FFFFFF"></path>
  <path d="M2.96,3.927c-.448-.267-1.123-.954-1.385-1.386-.033-.055-.114-.055-.147,0-.263.432-.938,1.119-1.385,1.386-.056.033-.056.114,0,.148.446.265,1.121.952,1.384,1.383.033.055.114.055.147,0,.263-.43.938-1.117,1.385-1.383.056-.033.056-.114,0-.148,0,0,0,0,0,0Z" fill="#FFFFFF"></path>
  <path d="M9.96,3.927c-.448-.267-1.122-.954-1.385-1.386-.033-.055-.114-.055-.147,0-.263.432-.938,1.119-1.385,1.386-.056.033-.056.114,0,.148.446.265,1.121.952,1.384,1.383.033.055.114.055.147,0,.263-.43.938-1.117,1.385-1.383.056-.033.056-.114,0-.148,0,0,.001,0,.001,0Z" fill="#FFFFFF"></path>
</svg>