<svg xmlns:xlink="http://www.w3.org/1999/xlink" xmlns="http://www.w3.org/2000/svg" width="240" height="175" fill="none" data-name="logo-black.svg" viewBox="0 0 240 175"><path d="M60.9,52.87c1.26-1.03,2.07-2.6,2.07-4.34,0-3.11-2.53-5.63-5.66-5.63-2.42,0-4.48,1.51-5.29,3.63-.81-2.12-2.87-3.63-5.29-3.63-3.12,0-5.66,2.52-5.66,5.63,0,1.75.8,3.31,2.07,4.34-2.97.17-5.34,2.61-5.34,5.6s2.53,5.63,5.66,5.63c1.14,0,2.19-.34,3.07-.91-.12.46-.2.95-.2,1.45,0,3.11,2.54,5.63,5.67,5.63s5.66-2.52,5.66-5.63c0-.5-.07-.99-.2-1.45.89.57,1.95.91,3.08.91,3.13,0,5.66-2.52,5.66-5.63s-2.34-5.42-5.31-5.6" fill="#FFFFFF"></path><path d="M208.77,67.58c1.43-.79,2.51-2.18,2.83-3.9.57-3.05-1.47-5.99-4.54-6.55-2.38-.44-4.68.68-5.87,2.62-.41-2.23-2.16-4.09-4.54-4.52-3.07-.56-6.03,1.45-6.6,4.51-.32,1.72.19,3.41,1.24,4.64-2.96-.37-5.72,1.61-6.27,4.55-.57,3.05,1.46,5.99,4.54,6.55,1.11.2,2.21.07,3.18-.34-.21.43-.37.89-.46,1.39-.57,3.05,1.47,5.99,4.54,6.55,3.08.56,6.03-1.45,6.6-4.51.09-.5.11-.99.07-1.46.77.72,1.75,1.24,2.86,1.45,3.08.56,6.03-1.45,6.6-4.51.54-2.93-1.32-5.75-4.19-6.47" fill="#FFFFFF"></path><path d="M189.28,25.93c9.9,3.65,12.75,8.01,12.75,8.01-20.47-6.8-35.61-.46-35.61-.46l-.02-.02s3.52-15.91-7.37-27.13c0,0,5.81,1.98,10.13,6.72,3.66,4.02,6.51,1.2,11.37,4.43,5.08,3.38,3.62,6.58,8.75,8.47" fill="#FFFFFF"></path><path d="M78.31,9.25c5.24-3.6,9.47-4.16,9.47-4.16-11.59,8.26-13.13,24.63-13.13,24.63h-.02s-12.38-9.28-26.67-5.06c0,0,.82-2,8.2-4.36,5.38-1.73,5.99-5.03,10.39-7.21,5.3-2.62,7.16-.66,11.76-3.82" fill="#FFFFFF"></path><path d="M114.79,91.58c-3.26-4.64-12.84-7.65-24.3-3.03-2.93-4.47-7.47-8.46-14.11-11.2,0,0,3.38-1.99,7.84-1.19,5.84,1.06,12.17,8.46,12.17,8.46,0-5.53-6.21-9.22-5.78-13.62.79-7.98-6.53-14.29-14.34-9.33-5.86,3.73-11.12,15.78-22.24,15.78-12.04,0-21.8-9.69-21.8-21.65s9.76-21.65,21.8-21.65c6.65,0,13.45,2.55,16.03,8.11,1.27,2.73,1.43,5.6-4.37,5.6,0,0,.54,2.69,1.89,3.99,1.8,1.74,6.24,1.89,8.99-.63,2.77-2.55,1.74-9.9-1.26-13.92-5.07-6.81-12.1-9.74-21.28-9.74-15.7,0-28.44,12.64-28.44,28.25,0,13.39,9.39,24.61,21.99,27.51,0,0-3.5,2.95-6.2,8.25,0,0-1.73-2.51-.86-4.79.94-2.47,2.03-2.67,2.03-2.67,0,0-1.99-2.61-5.43-.6-2.73,1.6-4.78,5.36-4.78,5.36-3.81.92-5.41,3.79-5.41,3.79-11.61-15.87-7.93-34.19-4.24-39.32,0,0-9.32,2.86-9.81,18.26-.24,7.69-5.9,5.55-8.43,14.58-2.52,9,3.14,11.76-.43,17.35-3.84,6.02-6.01,13.54-1.41,20.33,0,0-2.64-15.69,23.17-25.79,0,0,.36,4.28,4.56,6.37l.5,3.23c-7.43.67-19.92,5.32-24.73,16.02-2.19,4.86,1.46,6.14,3.76,4.37.64-.49,1.12-1.27,1.67-2.22.21.44.5.83.88,1.17,3.02,2.72,6.82-1.11,6.65-4.61-.17-3.44.91-5.43,6.01-7.51h0s0,0,0,0c.23-.08.46-.16.7-.24v-.02c3.24-1.03,6.8-.85,9.88.04,6.44,3.03-8.63,11.06-8.63,11.06,0,0,16.67,9.37,16.56-5.04,4.65,7.85,13.8,4.12,14.07-2,.14-3.18-2.08-5.91-4.84-6.24-7.99-.95-8.94-8.17-6.52-15.48,2.73-8.23,11.09-14.58,20.62-14.58.38,0,.76.03,1.13.05-4.79,5.59-2.94,11.54-2.94,11.54,0,0,9.63-9.39,7-.47h.02c-.49,1.94-.76,4.03.24,5.84,5.08,9.15,15.04-.09,15.04-.09.21-.15.4-.28.6-.42.4,1.64.62,3.36.62,5.12s-.33,8.01-6.79,9.29c-1.26.25-2.19.78-2.82,1.46.09-1.67-.44-5.1-5.2-8.68-.52-.4-1.23-.4-1.76,0-6.65,5.01-5.03,9.74-5.03,9.74-6.47.74-6.79,9.63-6.79,9.63,3.04-1.09,8.31-3.29,8.31.22h0c0,1.83,1.82,3.07,4.4,3.07,2.37,0,4.4-1.33,4.4-3.07,0-3.52,5.27-1.31,8.31-.22,0,0-.08-1.97-.84-4.14.47-.12.96-.27,1.48-.48,6.27-2.54,10.58-13.94,7.51-24.9,2.61-.73,4.44-.2,5.73.96,5.22,4.72-2.08,9.78-2.08,9.78,0,0,2.48,3.46,5.52,2.79,5.46-1.2,6.51-6.15,5.92-10.38,5.99,1.97,8.3-4,5.89-7.45ZM36.27,106.23c.3-2.68,2.18-3.52,2.18-3.52-.12,2.54.12,4.62.62,6.9,0,0-3.18.14-2.8-3.37ZM84.24,92.42c-6.66,4.71-4.15-2.14-4.13-5.59,1.88,1.43,3.53,3.17,4.85,5.13-.24.15-.49.3-.72.46Z" fill="#FFFFFF"></path><path d="M225.12,105.55c-5.58,9.28-12.16,3.37-12.88,1.97-.59-1.13-.82-2.19-.87-3.14,3.57,1.31,8.17.47,12.73-5,0,0-6.05,1.52-7.34-2.2-1.06-3.06,1.36-6.85,9.83-3.91,7.2,2.5,11.43-3.69,9.06-8.34-1.18-2.31-2.91-3.07-4.58-3.14-.26-5.28-1.29-12.24-4.66-18.72-9.86-18.97-25.1-25.12-35.42-26.77-10.31-1.64-21.83.92-29.87,4.37,1.96-6.11,1.83-18.21-.66-24.11C156.12,6.3,145.59.18,132.27.18h-.8c-4.14,0-8.01.6-11.51,1.73v-.02c-7.72-2.3-16.81-3.56-25.64,2.69-8.1,5.73-13.7,13.86-15.01,23.76-1.12,8.51.99,23.66,22.61,37.88-.01.81.03,1.66.13,2.55,1.22,10.47,11.23,10.78,11.23,10.78-1.89-2.61-2.72-5.32-2.73-7.77,3.45,2.28,6.73,4.58,8.82,6.5,5.97,5.5,9.18,11.67,10.58,17.88-8.81,4.22-15.76,10.93-20.53,18.96-6.81,10.81-10.52,6.99-11.62,5.32-.15-.23-.5-.17-.57.1-1.86,7.14,8.63,11.87,13.55,4.45,1.6-2.4,1.56-2.79,2.79-4.75.63,2.1,1.78,4.13,3.86,3.89,6-.68,1.34-10.54,8.4-17.97,1.57-1.17,3.23-2.24,4.99-3.2.25,6.96-.05,12.94-1.62,18.58-.79,2.32-3.28,7.23.43,7.23.16,0,.33,0,.5,0h7.99,0c.1,0,.21,0,.3,0,4,0,.79-5.71.28-7.73-1.21-4.79-1.18-14.19-1.18-14.19l-.02.05c0-.93,0-1.88,0-2.85,0-1.27-.07-2.51-.18-3.74,2.46-.68,3.6-.84,5.97-.95,11.37-.56,19.37,7.21,21.08,16.23.96,5.06-2.39,6.21-4.14,6.77-3.61,1.16-2.75,5.91,1.11,6.31,3.15.34,5.84-.54,7.68-2.42.92,1.13,2.03,1.93,3.43,2.22,9.29,1.93,11.08-7.46,6.6-9.56-2.97,5.55-6.25.41-8.75-7.15-.1-.32-.2-.64-.31-.96,0-.02-.01-.04-.02-.05h0c-3.88-11.31-13.58-18.42-26.56-17.96-2.01.07-2.4.13-4.61.49,3.79-1.97,6.6-3.8,8.82-5.77,4.38-4.15,10.47-5.14,16.3-2.66,4.33,1.84,7.81,5.24,10.07,9.55,1.44,4.46-1.55,6.02-1.91,10.03-.4,4.57,3.08,3.53,3.08,3.53,0,6.64,8.33,8.26,8.33-1.53l-.02-.02c0-12.38-6.65-23.22-16.95-27.59-3.82-1.62-7.72-2.18-11.44-1.74.86-1.75,1.73-3.69,2.72-5.86.25-.55.51-1.13.78-1.72,0,0,0,.02,0,.02,3.45-7.12,6.88-5.22,10.28-3.72,3.03,1.33,7.03-2.63,4.36-6.18-1.4-1.85-4.05-2.17-6.26-1.96,1.85-1.42,3.81-2.23,5.76-2.12,3.72.22,4.94,2.33,8.33,4.04,6.83,3.44,11.29-6.31,3.98-10.4-2.79-1.56-6.92-1.97-12.07-1.07-.88.13-1.75.32-2.62.59-.07.02-.13.05-.21.07-.13.04-.27.08-.41.12h.01c-6.68,2.28-12.88,8.5-16.68,16.82-.45.98-.88,1.92-1.27,2.81-3.07,6.79-4.79,10.57-8.09,13.7-.21.18-.41.35-.61.53h.01c-1.26,1.1-2.74,2.14-4.59,3.21.16-1.73.33-3.35.53-4.88.03-.22.06-.44.09-.66,1.64-11.92,5.01-18.27,13.81-26.85,6.94-6.77,22.88-13.08,37.04-10.83,12.65,2.02,23.79,10.21,30.6,23.3,1.27,2.45,2.15,5.06,2.76,7.63l-1.18-3.98c4.59,15.39-15.46,12.43-17.28,24.91-.17,1.16.02,2.43.5,3.68-5.18,2.75-9.29,2.86-12.75.9-2.47-1.4-4.46-6.52-.8-9.7,5.62-4.88-3.55-11.87-7.34-4.72-4.18,7.92,1.71,15.2,3.28,17.1.05.06.09.12.13.17.07.08.15.16.22.24.02.02.04.04.04.04-2.44,6.41-.06,15.47,5.29,20.25-.33,2.04-.52,5.69,2.27,6.11,2.58.39,3.93-.76,7.4-3.33.03-.02.06-.03.08-.04.39-.31.78-.59,1.17-.88.37-.27.76-.55,1.18-.85,9.31-6.37,17.61-5.95,19.1-1.23,4.07,12.91,19.18,3.67,11.25-5.64h0c-3.4-3.98-3.52-6.54-2.5-7.86,1.3-1.69,3.92-2.9,6.31,1.15,2.32-9.34-7.94-15.47-14.54-4.46ZM127.92,21.17c1.18,7.09,8.13,4.31,7.1-.18.93,2.88,1.08,5.93.43,9.12-.78,3.85-2.76,9.54-5.64,14.71.22-1.75.11-3.62-.48-5.57-2.28-7.51-5.34-8.23-9.7-16.27-5.18-9.54,6.73-11.19,8.29-1.81ZM103.6,59.47c-12.64-8.74-19.24-18.89-17.74-30.27,1-7.57,4.22-13.96,10.61-18.33,5.96-4.07,9.97,2.33,6.08,6.57-4.27,4.64-9.66.7-9.66.7,0,0-1.43,7.22,6.59,8.76-5.6,1.63-7.45,10.69-.42,13.08,1.91.65-.71,4.03,3.02,5.81,1.42.68,2.49.23,3.08-.19,1.33,2.79,2.98,5.29,4.96,7.29.14.14.28.27.41.41-2.46,1.14-5.22,3.05-6.94,6.17ZM107.97,30.2c-.27-4.17.18-8.15,1.42-11.1.59-1.39,1.33-2.67,2.2-3.85.21-.25.44-.48.67-.72-2.8,5.42,1.57,11.91,1.57,11.91-2.71.6-4.6,1.95-5.86,3.75ZM114.74,34.16c6-1.87,12.64,10.65,5.23,19.06-.74-.68-1.5-1.39-2.27-2.13-9.63-9.49-7.05-15.66-2.96-16.93ZM132.07,83.6c-2.12-3.64-4.86-7.02-8.22-10.11-2.55-2.35-6.93-5.37-11.01-8.03,2.52-2.65,6.81-3.24,11.57.36,9.93,9.05,7.76,16.75,7.66,17.78ZM148.91,48.29h0s.02.02.02.02c-.22.21-.45.42-.66.62-6.57,6.4-10.47,11.99-12.89,18.57-2.18-2.74-4.33-4.99-7.8-7.98,7.4-7.13,12.27-18.71,13.92-26.83,1.37-6.72.48-14.53-3.38-20.16-1.66-2.42-3.7-4.36-6-5.8h.15c10.72,0,18.77,4.51,22.09,12.37,3.26,7.72,1.12,22.56-5.44,29.18ZM199.33,119.88c-3.61-3.33-6.71-8.67-5.52-13.75,3.39,1.1,7.14.77,10.69-.4,0,2.59.53,5.5,2.39,7.92.34.44.71.85,1.11,1.22-3.08,1.36-5.99,3.05-8.66,5Z" fill="#FFFFFF"></path><path d="M124.68,174.99l-.54-3.83-1.61-3.51h-16.69l-1.61,3.51-.54,3.83h-7.59l14.86-32.1-1.43-3.11h7.4l16.33,35.21h-8.59.01ZM107.69,162.4h13.02l-6.51-13.75-6.51,13.75h0Z" fill="#FFFFFF"></path><path d="M224.14,174.99l-.54-3.83-1.61-3.51h-16.7l-1.61,3.51-.54,3.83h-7.59l14.86-32.1-1.43-3.11h7.39l16.33,35.21h-8.59.01ZM207.14,162.4h13.02l-6.51-13.75-6.51,13.75h0Z" fill="#FFFFFF"></path><path d="M35.81,174.99l-.54-3.83-1.61-3.51h-16.69l-1.61,3.51-.53,3.83h-7.6l14.86-32.1-1.43-3.11h7.4l16.33,35.21h-8.59ZM18.81,162.4h13.02l-6.51-13.75-6.51,13.75h0Z" fill="#FFFFFF"></path><path d="M73.42,161.72l14.63-21.93h-8.36l-1.27,3.53-8.3,12.6-8.34-12.6-1.21-3.53h-8.35l14.66,21.93-.63,13.28h7.76l-.6-13.28Z" fill="#FFFFFF"></path><path d="M182.11,139.78h-7.58l.63,3.83v25.9l-17.46-29.73h-10.96l1.43,3.11v28.34l-.62,3.76h.63s6.32,0,6.32,0h0s.63,0,.63,0l-.62-3.82v-24.58l16.62,28.39h10.38v-31.39l.62-3.82Z" fill="#FFFFFF"></path></svg>