<svg xmlns:xlink="http://www.w3.org/1999/xlink" width="58" height="20" viewBox="0 0 58 20" fill="none" xmlns="http://www.w3.org/2000/svg">
<path class="js_ham_dot __top __l3" d="M1.45308 0.226541C1.75514 -0.0755135 2.24486 -0.0755138 2.54692 0.226541L3.77346 1.45308C4.07551 1.75514 4.07551 2.24486 3.77346 2.54692L2.54692 3.77346C2.24486 4.07551 1.75514 4.07551 1.45308 3.77346L0.226541 2.54692C-0.0755135 2.24486 -0.0755138 1.75514 0.226541 1.45308L1.45308 0.226541Z" fill="#FFFFFF"></path>
<path class="js_ham_dot __top __l1" d="M19.4531 0.226541C19.7551 -0.0755135 20.2449 -0.0755138 20.5469 0.226541L21.7735 1.45308C22.0755 1.75514 22.0755 2.24486 21.7735 2.54692L20.5469 3.77346C20.2449 4.07551 19.7551 4.07551 19.4531 3.77346L18.2265 2.54692C17.9245 2.24486 17.9245 1.75514 18.2265 1.45308L19.4531 0.226541Z" fill="#FFFFFF"></path>
<path class="js_ham_dot __top __r1" d="M37.4531 0.226541C37.7551 -0.0755135 38.2449 -0.0755138 38.5469 0.226541L39.7735 1.45308C40.0755 1.75514 40.0755 2.24486 39.7735 2.54692L38.5469 3.77346C38.2449 4.07551 37.7551 4.07551 37.4531 3.77346L36.2265 2.54692C35.9245 2.24486 35.9245 1.75514 36.2265 1.45308L37.4531 0.226541Z" fill="#FFFFFF"></path>
<path class="js_ham_dot __top __r3" d="M55.4531 0.226541C55.7551 -0.0755135 56.2449 -0.0755138 56.5469 0.226541L57.7735 1.45308C58.0755 1.75514 58.0755 2.24486 57.7735 2.54692L56.5469 3.77346C56.2449 4.07551 55.7551 4.07551 55.4531 3.77346L54.2265 2.54692C53.9245 2.24486 53.9245 1.75514 54.2265 1.45308L55.4531 0.226541Z" fill="#FFFFFF"></path>
<path class="js_ham_dot __bottom __l3" d="M1.45308 16.2265C1.75514 15.9245 2.24486 15.9245 2.54692 16.2265L3.77346 17.4531C4.07551 17.7551 4.07551 18.2449 3.77346 18.5469L2.54692 19.7735C2.24486 20.0755 1.75514 20.0755 1.45308 19.7735L0.226541 18.5469C-0.0755135 18.2449 -0.0755138 17.7551 0.226541 17.4531L1.45308 16.2265Z" fill="#FFFFFF"></path>
<path class="js_ham_dot __bottom __l1" d="M19.4531 16.2265C19.7551 15.9245 20.2449 15.9245 20.5469 16.2265L21.7735 17.4531C22.0755 17.7551 22.0755 18.2449 21.7735 18.5469L20.5469 19.7735C20.2449 20.0755 19.7551 20.0755 19.4531 19.7735L18.2265 18.5469C17.9245 18.2449 17.9245 17.7551 18.2265 17.4531L19.4531 16.2265Z" fill="#FFFFFF"></path>
<path class="js_ham_dot __bottom __r1" d="M37.4531 16.2265C37.7551 15.9245 38.2449 15.9245 38.5469 16.2265L39.7735 17.4531C40.0755 17.7551 40.0755 18.2449 39.7735 18.5469L38.5469 19.7735C38.2449 20.0755 37.7551 20.0755 37.4531 19.7735L36.2265 18.5469C35.9245 18.2449 35.9245 17.7551 36.2265 17.4531L37.4531 16.2265Z" fill="#FFFFFF"></path>
<path class="js_ham_dot __bottom __r3" d="M55.4531 16.2265C55.7551 15.9245 56.2449 15.9245 56.5469 16.2265L57.7735 17.4531C58.0755 17.7551 58.0755 18.2449 57.7735 18.5469L56.5469 19.7735C56.2449 20.0755 55.7551 20.0755 55.4531 19.7735L54.2265 18.5469C53.9245 18.2449 53.9245 17.7551 54.2265 17.4531L55.4531 16.2265Z" fill="#FFFFFF"></path>
<path class="js_ham_dot __l2" d="M10.4531 8.22654C10.7551 7.92449 11.2449 7.92449 11.5469 8.22654L12.7735 9.45308C13.0755 9.75514 13.0755 10.2449 12.7735 10.5469L11.5469 11.7735C11.2449 12.0755 10.7551 12.0755 10.4531 11.7735L9.22654 10.5469C8.92449 10.2449 8.92449 9.75514 9.22654 9.45308L10.4531 8.22654Z" fill="#FFFFFF"></path>
<path class="js_ham_dot __c" d="M28.4531 8.22654C28.7551 7.92449 29.2449 7.92449 29.5469 8.22654L30.7735 9.45308C31.0755 9.75514 31.0755 10.2449 30.7735 10.5469L29.5469 11.7735C29.2449 12.0755 28.7551 12.0755 28.4531 11.7735L27.2265 10.5469C26.9245 10.2449 26.9245 9.75514 27.2265 9.45308L28.4531 8.22654Z" fill="#FFFFFF"></path>
<path class="js_ham_dot __r2" d="M46.4531 8.22654C46.7551 7.92449 47.2449 7.92449 47.5469 8.22654L48.7735 9.45308C49.0755 9.75514 49.0755 10.2449 48.7735 10.5469L47.5469 11.7735C47.2449 12.0755 46.7551 12.0755 46.4531 11.7735L45.2265 10.5469C44.9245 10.2449 44.9245 9.75514 45.2265 9.45308L46.4531 8.22654Z" fill="#FFFFFF"></path>
</svg>