<svg xmlns:xlink="http://www.w3.org/1999/xlink" xmlns="http://www.w3.org/2000/svg" viewBox="0 0 110 22" width="180"  height="36" >
    <path d="M57.1518,21.0006l-.2465-1.75311-.7367-1.6048h-7.6522l-.7367,1.6048-.2465,1.75311h-3.4785l6.8102-14.6744-.6536-1.4239h3.3899l7.4833,16.0983h-3.9383.0056ZM49.3611,15.2449h5.9683l-2.9828-6.2878-2.9827,6.2878h-.0028Z" fill="#3E3A39"></path>
    <path d="M102.738,21.0006l-.247-1.75311-.736-1.6048h-7.65269l-.7367,1.6048-.2465,1.75311h-3.4785l6.8103-14.6744-.65359-1.4239h3.3899l7.4828,16.0983h-3.938.006ZM94.947,15.2449h5.968l-2.9824-6.2878-2.9828,6.2878h-.0028Z" fill="#3E3A39"></path>
    <path d="M16.4146,21.0006l-.2465-1.75311-.7367-1.6048h-7.64938l-.7367,1.6048-.24371,1.75311h-3.4813l6.81029-14.6744-.65363-1.4239h3.39263l7.4833,16.0983h-3.9383ZM8.62395,15.2449h5.96835l-2.9828-6.2878-2.98278,6.2878h-.00277Z" fill="#3E3A39"></path>
    <path d="M33.653,14.9306l6.7078-10.0244h-3.8303l-.5816,1.6159-3.8025,5.7584-3.8247-5.7584-.5567-1.6159h-3.8275l6.7216,10.0244-.2908,6.0711h3.5589l-.2908-6.0711h.0166Z" fill="#3E3A39"></path>
    <path d="M80.2829,4.9023h2.9024v16.0983h-4.7552l-7.6162-12.979v12.979h-2.9025V6.3262l-.6536-1.4239h5.0239l8.0012,13.5936V4.9023Z" fill="#3E3A39"></path>
    <path d="M67.913,19.2461v1.753h-.288l.288-1.753Z" fill="#3E3A39"></path>
    <path d="M70.8125,19.2461v1.753h.288l-.288-1.753Z" fill="#3E3A39"></path>
    <path d="M83.1875,6.6554v-1.7531h.288l-.288,1.7531Z" fill="#3E3A39"></path>
    <path d="M80.2802,6.6554v-1.7531h-.28799l.28799,1.7531Z" fill="#3E3A39"></path>
</svg>